<?xml version="1.0" encoding="UTF-8"?>
<svg version="1.1" xmlns="http://www.w3.org/2000/svg" width="44" height="44">
<path d="M0 0 C3.81684226 1.55500981 6.19195732 4.03595495 9 7 C12.81684226 5.44499019 15.19195732 2.96404505 18 0 C18.99 0.33 19.98 0.66 21 1 C19.44499019 4.81684226 16.96404505 7.19195732 14 10 C15.55500981 13.81684226 18.03595495 16.19195732 21 19 C20.67 19.99 20.34 20.98 20 22 C16.18315774 20.44499019 13.80804268 17.96404505 11 15 C7.18315774 16.55500981 4.80804268 19.03595495 2 22 C1.01 21.67 0.02 21.34 -1 21 C0.55500981 17.18315774 3.03595495 14.80804268 6 12 C4.44499019 8.18315774 1.96404505 5.80804268 -1 3 C-0.67 2.01 -0.34 1.02 0 0 Z " fill="#214E3E" transform="translate(12,11)"/>
</svg>
